<svg xmlns="http://www.w3.org/2000/svg" width="173.5" height="60.57" viewBox="0 0 173.5 60.57"><g transform="translate(-138.5 -72.424)"><g transform="translate(70 -12)"><g transform="translate(70 86)"><text transform="translate(59 46)" fill="#ffe70d" font-size="40" font-family="Roboto-Bold, Roboto" font-weight="700"><tspan x="0" y="0">Calico</tspan></text><g transform="translate(0 0)"><path d="M56.044,43.087V20.179a5.727,5.727,0,0,0-2.864-4.954L33.136,3.77a5.727,5.727,0,0,0-5.727,0L7.364,15.225A5.727,5.727,0,0,0,4.5,20.179V43.087a5.727,5.727,0,0,0,2.864,4.954L27.409,59.5a5.727,5.727,0,0,0,5.727,0L53.181,48.041a5.727,5.727,0,0,0,2.864-4.954Z" transform="translate(-4.5 -3.003)" fill="none" stroke="#ffe70d" stroke-linecap="round" stroke-linejoin="round" stroke-width="3"/><path d="M4.9,10.44,29.9,24.9l25-14.461" transform="translate(-4.132 3.757)" fill="none" stroke="#ffe70d" stroke-linecap="round" stroke-linejoin="round" stroke-width="3"/><path d="M18,46.865V18" transform="translate(7.772 10.63)" fill="none" stroke="#ffe70d" stroke-linecap="round" stroke-linejoin="round" stroke-width="3"/></g></g></g></g></svg>